<?xml version="1.0" encoding="utf-8"?>
<!-- Generator: Adobe Illustrator 16.0.0, SVG Export Plug-In . SVG Version: 6.00 Build 0)  -->
<!DOCTYPE svg PUBLIC "-//W3C//DTD SVG 1.1//EN" "http://www.w3.org/Graphics/SVG/1.1/DTD/svg11.dtd">
<svg version="1.1" id="Layer_1" xmlns="http://www.w3.org/2000/svg" xmlns:xlink="http://www.w3.org/1999/xlink" x="0px" y="0px"
	 width="1000px" height="1000px" viewBox="0 0 1000 1000" enable-background="new 0 0 1000 1000" xml:space="preserve">
<g>
	<path fill="#F09000" d="M1000,950c0,27.5-22.5,50-50,50H50c-27.5,0-50-22.5-50-50V50C0,22.5,22.5,0,50,0h900c27.5,0,50,22.5,50,50
		V950z"/>
</g>
<g>
	<g>
		<path fill="#FFFFFF" d="M116.556,772.403c24.304,0,37.841,17.354,37.841,41.854c0,3.116-2.423,5.886-5.896,5.886H89.8
			c1.041,19.093,14.751,29.705,30.382,29.705c9.562,0,17.041-3.995,21.025-6.944c3.311-1.737,5.904-1.399,7.805,1.9l1.573,2.604
			c1.747,2.966,1.227,5.905-1.747,7.64c-5.189,3.661-15.619,9.391-29.688,9.391c-27.614,0-46.544-19.961-46.544-46.012
			C72.605,790.453,91.535,772.403,116.556,772.403 M137.57,809.026c-0.532-15.446-9.747-23.436-21.373-23.436
			c-12.852,0-23.272,8.685-25.703,23.436H137.57z"/>
		<path fill="#FFFFFF" d="M171.773,814.595v-3.476c0-3.645,2.095-5.739,5.731-5.739h39.251c3.819,0,5.73,2.095,5.73,5.739v3.476
			c0,3.82-1.911,5.73-5.73,5.73h-39.251C173.868,820.325,171.773,818.415,171.773,814.595"/>
		<path fill="#FFFFFF" d="M286.93,772.403c14.752,0,24.314,5.721,28.994,9.345c2.963,1.942,3.127,4.894,1.042,7.827l-1.727,2.614
			c-2.095,3.118-4.515,3.289-7.826,1.391c-3.646-2.614-10.411-6.612-19.625-6.612c-17.704,0-30.556,13.211-30.556,31.274
			c0,17.876,12.852,31.606,30.913,31.606c10.573,0,18.226-4.861,22.395-7.986c3.136-2.097,5.741-1.748,7.814,1.553l1.4,2.623
			c1.727,2.934,1.206,5.721-1.553,7.624c-4.884,4.005-15.487,10.776-31.272,10.776c-27.624,0-46.893-19.634-46.893-46.012
			C240.037,792.363,259.479,772.403,286.93,772.403"/>
		<path fill="#FFFFFF" d="M378.446,772.403c26.234,0,47.423,19.265,47.423,45.839c0,26.745-21.188,46.196-47.423,46.196
			c-26.216,0-47.229-19.451-47.229-46.196C331.217,791.668,352.23,772.403,378.446,772.403 M378.446,849.849
			c16.683,0,30.229-13.199,30.229-31.606c0-18.234-13.547-31.274-30.229-31.274c-16.489,0-30.209,13.04-30.209,31.274
			C348.237,836.649,361.957,849.849,378.446,849.849"/>
		<path fill="#FFFFFF" d="M444.452,780.198c0-3.802,2.085-5.721,5.722-5.721h4.873c3.821,0,5.731,1.919,5.731,5.721v7.822
			c0,2.619-0.532,5.028-0.532,5.028h0.357c3.474-7.643,14.078-20.646,33.337-20.646c20.668,0,30.056,11.287,30.056,33.684v50.536
			c0,3.823-1.911,5.742-5.742,5.742h-5.364c-3.656,0-5.761-1.919-5.761-5.742v-46.719c0-12.328-2.4-22.057-16.479-22.057
			c-17.021,0-29.352,14.241-29.352,32.478v36.298c0,3.823-1.919,5.742-5.73,5.742h-5.395c-3.637,0-5.722-1.919-5.722-5.742V780.198z
			"/>
		<path fill="#FFFFFF" d="M588.592,772.403c26.236,0,47.414,19.265,47.414,45.839c0,26.745-21.178,46.196-47.414,46.196
			c-26.213,0-47.228-19.451-47.228-46.196C541.364,791.668,562.379,772.403,588.592,772.403 M588.592,849.849
			c16.695,0,30.23-13.199,30.23-31.606c0-18.234-13.535-31.274-30.23-31.274c-16.497,0-30.219,13.04-30.219,31.274
			C558.373,836.649,572.095,849.849,588.592,849.849"/>
		<path fill="#FFFFFF" d="M654.6,780.198c0-3.802,2.094-5.721,5.731-5.721h4.861c3.822,0,5.732,1.919,5.732,5.721v7.822
			c0,2.619-0.521,5.028-0.521,5.028h0.348c4.33-10.247,16.681-20.646,30.556-20.646c14.772,0,23.282,6.763,26.408,19.96h0.338
			c4.689-10.245,16.846-19.96,31.098-19.96c19.962,0,29.004,11.287,29.004,33.684v50.536c0,3.823-1.921,5.742-5.73,5.742h-5.385
			c-3.646,0-5.731-1.919-5.731-5.742v-46.89c0-12.331-2.442-22.059-15.446-22.059c-16.336,0-26.072,16.837-26.072,33.684v35.265
			c0,3.823-1.89,5.742-5.547,5.742h-5.558c-3.638,0-5.568-1.919-5.568-5.742v-46.89c0-11.453-1.727-22.059-15.284-22.059
			c-16.662,0-26.386,17.348-26.386,33.684v35.265c0,3.823-1.911,5.742-5.733,5.742h-5.383c-3.638,0-5.731-1.919-5.731-5.742V780.198
			z"/>
		<path fill="#FFFFFF" d="M811.08,751.192v-5.722c0-3.831,1.91-5.729,5.721-5.729h5.914c3.639,0,5.722,1.898,5.722,5.729v5.722
			c0,3.658-2.083,5.741-5.722,5.741h-5.914C812.99,756.934,811.08,754.851,811.08,751.192 M811.243,780.198
			c0-3.802,2.094-5.721,5.741-5.721h5.384c3.821,0,5.732,1.919,5.732,5.721v76.425c0,3.823-1.911,5.742-5.732,5.742h-5.384
			c-3.647,0-5.741-1.919-5.741-5.742V780.198z"/>
		<path fill="#FFFFFF" d="M893.585,772.403c14.762,0,24.306,5.721,28.994,9.345c2.953,1.942,3.137,4.894,1.043,7.827l-1.737,2.614
			c-2.096,3.118-4.515,3.289-7.806,1.391c-3.658-2.614-10.419-6.612-19.636-6.612c-17.727,0-30.565,13.211-30.565,31.274
			c0,17.876,12.839,31.606,30.903,31.606c10.595,0,18.245-4.861,22.414-7.986c3.117-2.097,5.731-1.748,7.814,1.553l1.391,2.623
			c1.727,2.934,1.205,5.721-1.563,7.624c-4.872,4.005-15.467,10.776-31.252,10.776c-27.613,0-46.901-19.634-46.901-46.012
			C846.684,792.363,866.145,772.403,893.585,772.403"/>
	</g>
	<g>
		<defs>
			
				<rect id="SVGID_34_" x="227.797" y="136.53" transform="matrix(-1 0.0036 -0.0036 -1 1001.5081 845.6839)" width="544.407" height="574.409"/>
		</defs>
		<clipPath id="SVGID_2_">
			<use xlink:href="#SVGID_34_"  overflow="visible"/>
		</clipPath>
		<path clip-path="url(#SVGID_2_)" fill="#FFFFFF" d="M628.493,619.307c0.182,50.359-40.499,91.319-90.855,91.499
			c-50.342,0.18-91.312-40.49-91.49-90.85c-0.181-50.346,40.498-91.324,90.84-91.504
			C587.345,528.272,628.313,568.956,628.493,619.307"/>
		<path clip-path="url(#SVGID_2_)" fill="#FFFFFF" d="M317.383,535.456c0.085,24.036-19.334,43.586-43.37,43.674
			c-24.038,0.083-43.588-19.328-43.675-43.365c-0.086-24.028,19.326-43.582,43.364-43.665
			C297.74,492.012,317.297,511.423,317.383,535.456"/>
		<path clip-path="url(#SVGID_2_)" fill="#FFFFFF" d="M769.429,246.629c-0.219-61.316-50.146-110.901-111.486-110.681
			c-56.872,0.203-103.602,43.158-109.91,98.31c-0.018,0.087-0.053,0.138-0.053,0.217c-2.767,20.318-6.24,69.489-30.34,90.757
			c-11.454,10.142-22.146,25.147-76.638,16.297l0.034,0.051c-12.246-2.276-34.142-5.76-45.452-24.839
			c-8.962-15.149-2.89-40.08-0.287-51.438c1.647-5.192,2.528-10.717,2.509-16.435c-0.106-29.773-24.308-53.802-54.06-53.69
			c-29.771,0.105-53.809,24.304-53.702,54.072c0.075,21.369,12.627,39.744,30.715,48.396l-0.085,0.028
			c18.722,8.634,35.317,15.135,42.337,32.225c6.753,16.504-4.649,51.645-7.918,60.979c-0.237,0.732-0.546,1.433-0.765,2.179
			c-0.052,0.097-0.068,0.166-0.068,0.166l0.017-0.019c-2.094,6.962-3.233,14.348-3.208,21.987
			c0.147,41.273,33.728,74.617,74.979,74.47c32.852-0.115,60.591-21.429,70.517-50.912l0.054,0.088
			c4.181-11.109,7.979-53.47,45.339-73.752c24.791-13.486,78.33-9.39,104.803-7.588c2.919,0.28,5.889,0.456,8.868,0.524
			c2.231,0.111,3.965,0.147,5.088,0.083c0.104-0.019,0.146-0.06,0.225-0.078C721.273,356.641,769.646,307.249,769.429,246.629"/>
	</g>
</g>
</svg>
